<?xml version="1.0" standalone="no"?><svg xmlns="http://www.w3.org/2000/svg" viewBox="0 0 1440 320"><path fill="#0099ff" fill-opacity="1" d="M0,128L24,133.3C48,139,96,149,144,138.7C192,128,240,96,288,106.7C336,117,384,171,432,186.7C480,203,528,181,576,186.7C624,192,672,224,720,208C768,192,816,128,864,101.3C912,75,960,85,1008,106.7C1056,128,1104,160,1152,160C1200,160,1248,128,1296,101.3C1344,75,1392,53,1416,42.7L1440,32L1440,320L1416,320C1392,320,1344,320,1296,320C1248,320,1200,320,1152,320C1104,320,1056,320,1008,320C960,320,912,320,864,320C816,320,768,320,720,320C672,320,624,320,576,320C528,320,480,320,432,320C384,320,336,320,288,320C240,320,192,320,144,320C96,320,48,320,24,320L0,320Z"></path></svg>